<?xml version="1.0" encoding="utf-8"?>
<!-- Generator: Adobe Illustrator 24.1.2, SVG Export Plug-In . SVG Version: 6.00 Build 0)  -->
<svg version="1.1" id="Layer_1" xmlns="http://www.w3.org/2000/svg" xmlns:xlink="http://www.w3.org/1999/xlink" x="0px" y="0px"
	 viewBox="0 0 190.5 76.4" style="enable-background:new 0 0 190.5 76.4;" xml:space="preserve">
<g>
	<path d="M113.9,60.8h6V71h7.7v4.9H114L113.9,60.8L113.9,60.8z M98.6,60.8h14.3v4.7h-8.3v1h8v3.7h-8v1h8.3v4.7H98.6V60.8z
		 M81.6,70.6h5.3c0,0.8,0.7,1.2,2.6,1.2c1.6,0,2.2-0.3,2.2-0.7c0-0.1,0.1-0.6-1.1-0.8l-2-0.3c-2.9-0.4-6.7-0.5-6.7-4.7
		c0-3.1,2.5-5,7.7-5c4.6,0,7.9,1.1,7.7,5.7H92c-0.1-0.8-0.8-1.2-2.5-1.2c-1.4,0-1.8,0.4-1.8,0.7c0,0.1,0,0.6,0.8,0.7l1.6,0.3
		c3.1,0.5,7.6,0.3,7.6,4.8c0,3.5-2.6,5.1-8.2,5C83.9,76.3,81.4,74.7,81.6,70.6L81.6,70.6z M65.1,68.4c0-2.1-1.2-2.6-2.5-2.6h-2.1V71
		h2.1C63.9,70.9,65.1,70.4,65.1,68.4L65.1,68.4z M71.1,68.4c0,4.3-2.1,7.5-8.5,7.5h-8.1v-15h8.1C69,60.8,71.1,64,71.1,68.4
		L71.1,68.4z M43.2,68H46c0.9,0,1.3-0.5,1.3-1.2s-0.4-1.2-1.3-1.2h-2.8V68L43.2,68z M48,75.9l-1.8-3.5h-3.1v3.5h-6v-15h9.2
		c4.3,0,6.8,1.7,6.8,6c0,1.9-0.8,3.3-2,4.2l2.6,4.8H48L48,75.9z M28.6,69.9l-1.1-3.6h-1l-1.1,3.6H28.6L28.6,69.9z M30,74.2h-5.8
		l-0.5,1.6h-6.1l5.4-15h8.3l5.4,15h-6.1L30,74.2L30,74.2z M16.7,60.8v15h-6v-5H6v5H0v-15h6v5h4.8v-5L16.7,60.8L16.7,60.8z"/>
	<path d="M55.2,30c-0.6,0.5-1.2,1-1.8,1.5c-0.2,0.2-0.5,0.3-0.9,0.5c0-0.3,0-0.5,0-0.8c0.2-1.7,0.6-3.3,1.3-4.8
		c1-2.2,2.3-4.3,3.9-6.2c1.3-1.6,2.7-3.1,4.4-4.4c0.1,0,0.1,0,0.3-0.1c-0.1,0.3-0.1,0.5-0.1,0.8c-0.8,2.9-1.7,5.7-3.2,8.3
		C57.9,26.7,56.8,28.5,55.2,30L55.2,30z M35.3,33.3c-0.7,0.5-1.4,0.8-2.2,0.9c-0.5,0.1-0.6,0-0.8-0.5c-0.3-1.2-0.2-2.4,0.1-3.7
		c0.3-1.7,0.9-3.4,1.6-5c1.1-2.7,2.6-5.3,4.2-7.8c0.5-0.8,1.1-1.5,1.7-2.3c-0.6,2.8,0.1,5.1,2,7.2c-0.1,0.4-0.3,0.9-0.4,1.3
		c-0.6,1.7-1.3,3.4-2.2,4.9C38.2,30.3,37,32,35.3,33.3L35.3,33.3z M43.6,15.8c-0.3,1.8-0.7,3.5-1.2,5.2c-0.8-0.2-0.9-0.3-0.9-0.9
		c0-0.4,0-0.9,0.2-1.3C41.8,17.8,42.8,16.4,43.6,15.8L43.6,15.8z M73.7,33l0.4-0.4c0.2-0.2,0.3-0.4,0.5-0.6c1.4-1.4,2.7-2.7,4.1-4.1
		c1.5-1.6,3-3.2,4.6-4.8c1.5-1.6,3.1-3.1,4.6-4.8c2-2.1,3.9-4.2,5.8-6.4c0.6-0.7,1.2-1.5,1.8-2.2c0.9-1,0.9-2.1,0.3-3.3
		c-0.1-0.1-0.1-0.2-0.2-0.3c-0.3-0.6-0.5-0.7-1.1-0.3C94.4,6,94.2,6.1,94,6.3c-1.1,0.9-2.1,1.8-3.2,2.7c-2,1.7-3.9,3.5-5.8,5.3
		c-1.5,1.4-3,2.8-4.5,4.3c-1.3,1.3-2.6,2.5-3.9,3.8c-0.4,0.4-0.8,0.7-1.1,1.1c0-0.5,0.1-0.9,0.3-1.3c0.4-1.2,0.9-2.4,1.3-3.6
		c1-2.5,1.9-4.9,2.9-7.4c0.2-0.6,0.4-1.2,0.3-1.8C80,8,79.5,6.9,78.7,5.9c-0.4-0.5-0.7-0.5-1,0.1c-0.4,0.7-0.7,1.4-1,2.1
		c-0.9,1.9-1.7,3.7-2.9,5.4c-0.8,1-1.5,2.1-2.3,3.1c-1.1,1.4-2.2,2.9-3.6,4.1c-0.6,0.5-1.3,1-2,1.4c-0.4,0.2-1,0.3-1.5,0.3
		c-0.2,0-0.4,0-0.5-0.1c0.1-0.6,0.2-1.1,0.4-1.8l0.1-1.3c0-0.8,0-1.7,0-2.5c0-0.7-0.1-1.4-0.2-2.1c0.2,0,0.4-0.1,0.6-0.1
		c0.6,0,0.7-0.1,0.6-0.7c-0.2-1.4-0.7-2.7-1.5-3.9c-0.5-0.7-1-0.8-1.7-0.3c-1.9,1-3.5,2.6-5,4.1c-0.6,0.6-1.2,1.2-1.8,1.8
		c-0.8,0.7-1.6,1.3-2.4,1.9c-1.7,1.3-3.6,2.4-5.6,3.2c-0.2,0.1-0.5,0.3-0.7,0.2c0.1-1.4,0.2-2.7,0.3-4c0-0.4-0.1-0.9,0.1-1.2
		c0.3-0.8,0.1-1.5-0.2-2.2c-0.1-0.4-0.3-0.7-0.5-1.1c0.6-0.9,0.7-1.6,0.4-2.4c-0.2-0.6-0.6-1.2-1-1.8c-0.4-0.5-1-0.7-1.6-0.6
		c-0.5,0.1-1,0.2-1.5,0.4c-1.1,0.5-2.1,1.2-3,2c-2.6,2.2-4.6,4.8-6.4,7.7c-1.1,1.7-2,3.6-2.8,5.5c-0.7,1.7-1.2,3.5-1.3,5.4
		c-0.1,1.7,0.1,3.3,1,4.7c0.8,1.3,2,2.4,3.3,3.1c0.6,0.3,1.2,0.4,1.8,0.4c1.6-0.1,2.9-0.7,4.1-1.6c1.9-1.4,3.2-3.3,4.1-5.4
		c1-2.1,1.8-4.3,2.4-6.7c2-0.3,3.9-1.1,5.8-2c-0.1,0.3-0.1,0.4-0.2,0.6c-0.7,1.6-1.3,3.2-1.7,4.8c-0.2,1.1-0.4,2.2-0.3,3.3
		c0.1,1.7,0.9,3.1,2,4.4c0.5,0.6,1,1.1,1.7,1.5c0.4,0.2,0.8,0.3,1.2,0.4c1,0,1.8-0.4,2.6-1c1.7-1.2,2.9-3,3.9-4.8
		c0.7-1.3,1.2-2.6,1.6-4c0.4-1.1,0.7-2.3,1-3.4c0.6,0.5,1.4,0.7,2.2,0.5c0.5-0.1,1.1-0.3,1.6-0.6c1.3-0.7,2.4-1.6,3.4-2.7
		c0.1-0.1,0.3-0.2,0.4-0.3c-0.7,2.1-1.5,4.1-2.2,6.1c-0.6,1.5-1.1,3-1.6,4.5c-0.5,1.4-1,2.9-1.4,4.4c-0.1,0.2-0.2,0.5-0.3,0.9
		l-0.5,0.8l0.2,0.1c-0.9,2.7-2.6,7.5-2.9,8.4c-0.2,0.7-0.3,1.4-0.6,2c-0.4,0.9-0.2,1.6,0.3,2.3c0.7,0.9,1.5,1.6,2.4,2.1
		c0.2,0.1,0.4,0.2,0.6,0.3c0.5,0.1,0.6,0.1,0.8-0.4c0.3-0.9,0.6-1.9,0.9-2.9c0.4-1.3,2.3-7.2,3.3-10.1l30.4,11
		c0.4-1.9-0.6-4-1.4-5.3c-0.4-0.7-1-1.2-1.8-1.5L73.7,33L73.7,33z M178,68h2.8c0.9,0,1.3-0.5,1.3-1.2s-0.4-1.2-1.3-1.2H178V68
		L178,68z M182.8,75.9l-1.8-3.5h-3v3.5h-6v-15h9.2c4.3,0,6.8,1.7,6.8,6c0,1.9-0.8,3.3-2,4.2l2.6,4.8H182.8z M156.4,60.8h14.3v4.7
		h-8.3v1h8v3.7h-8v1h8.3v4.7h-14.3V60.8z M140.6,71.1l7-5v-0.4h-6.9v-4.9h14.7v4.7l-7.2,5V71h7v4.9h-14.7L140.6,71.1L140.6,71.1z
		 M140,65.7h-5.3v10.1h-5.9V65.7h-5.3v-4.9H140V65.7L140,65.7L140,65.7z"/>
	<path d="M188.4,31.4c0-1.4-0.5-2.7-1.3-4c-0.1-0.1-0.1-0.1-0.2-0.2l0,0c-0.8-0.9-1.8-1.3-2.5-1.5c-1.7-0.6-3.6-0.9-5.9-1
		c-0.7,0-1.5,0-2.2-0.1l0,0c0.3-0.2,0.5-0.4,0.8-0.6c1.7-1.4,3.5-2.6,5.3-3.8c2.1-1.3,4-2.3,5.8-3c0.6-0.2,1.2-0.5,1.8-0.7l0.4-0.1
		l0.1-0.4c0.1-0.3,0.1-0.6,0-0.9c-0.1-0.3-0.2-0.5-0.5-0.8c-0.2-0.2-0.5-0.4-0.8-0.4c-0.3-0.1-0.6-0.1-0.9,0
		c-1.2,0.3-2.5,0.7-3.8,1.3c-2.1,0.9-4.1,2-6.2,3.4c-1.7,1.1-3,2.1-4.1,3.1c-0.6,0.6-1.3,1.2-1.7,2c-0.2,0.4-0.3,0.7-0.3,1
		c0.1,1,0.6,1.7,1,2.2c0.6,0.7,1.4,0.8,1.8,0.8c0.5,0.1,1,0.1,1.5,0.1c1.2,0.1,2.3,0.2,3.5,0.4c1.8,0.3,3.3,0.7,4.7,1.3l0.1,0.1
		c0.1,0.1,0.2,0.1,0.3,0.1c-0.2,0.2-0.5,0.5-0.8,0.7c-1.1,0.8-2.3,1.5-3.5,2.1c-1.1,0.6-2.3,1.1-3.5,1.6c-1,0.4-2,0.7-3,1
		c0.3-0.5,0.6-0.9,1-1.3c0.7-0.8,1.5-1.7,2.3-2.5l0.4-0.4l-0.3-0.4c-0.4-0.7-1-1.1-1.8-1.2s-1.5,0.1-2.1,0.6c-1,0.9-1.9,1.9-2.7,2.9
		c-0.4,0.5-0.8,1.1-1.1,1.9c-0.3,0.8-0.2,1.5,0.2,2.1c0.3,0.6,0.8,1.1,1.2,1.6c0.3,0.3,0.5,0.5,0.9,0.7c0.8,0.5,1.8,0.8,2.9,0.6
		c0.9-0.1,2-0.4,3.2-0.8c0.9-0.3,1.9-0.7,3-1.1c1.1-0.5,2.2-1,3.2-1.6c1.2-0.7,2.1-1.5,2.9-2.3C188.1,33.3,188.4,32.4,188.4,31.4
		L188.4,31.4z M112.5,21c-0.1-0.1-0.1-0.2-0.2-0.2l0,0c-0.9-1.1-2.2-1.6-3-1.8c-2.1-0.7-4.4-1.1-7.3-1.2c-0.9,0-1.8-0.1-2.7-0.1
		h-0.4c0.4-0.4,0.9-0.7,1.3-1.1c2.1-1.7,4.3-3.2,6.6-4.7c2.6-1.6,4.9-2.9,7.2-3.8c0.7-0.3,1.5-0.6,2.3-0.8l0.4-0.1l0.1-0.4
		c0.1-0.3,0.1-0.7,0-1s-0.3-0.6-0.5-0.9c-0.3-0.2-0.6-0.4-0.9-0.5s-0.7-0.1-1,0c-1.5,0.4-3,0.9-4.7,1.6c-2.6,1.1-5.1,2.5-7.7,4.1
		c-2.1,1.4-3.7,2.6-5.1,3.8c-0.8,0.7-1.6,1.4-2.1,2.4c-0.2,0.4-0.3,0.8-0.3,1.2c0.1,1.2,0.7,2.1,1.2,2.6c0.6,0.7,1.4,0.9,2.1,0.9
		c0.6,0.1,1.2,0.1,1.8,0.2c1.4,0.1,2.9,0.3,4.4,0.5c2.2,0.4,4.1,0.9,5.9,1.7c0.1,0,0.1,0,0.2,0.1c0.2,0.1,0.4,0.2,0.6,0.3
		c-0.3,0.4-0.6,0.7-1.1,1.1c-1.4,1-2.9,1.9-4.3,2.6s-2.9,1.4-4.3,2c-1.4,0.5-2.8,1-4.2,1.4c0.5-0.7,0.9-1.4,1.5-2
		c0.9-1,1.9-2.1,2.8-3.1l0.4-0.4l-0.3-0.4c-0.5-0.8-1.2-1.3-2.2-1.4c-0.9-0.1-1.8,0.1-2.5,0.7c-1.3,1.1-2.4,2.3-3.4,3.6
		c-0.4,0.6-1,1.4-1.3,2.3s-0.2,1.7,0.2,2.5c0.4,0.7,0.9,1.3,1.5,2c0.3,0.4,0.7,0.7,1,0.9c1,0.7,2.2,0.9,3.5,0.8
		c1.2-0.1,2.4-0.4,3.9-1c1.1-0.4,2.4-0.8,3.7-1.4c1.4-0.6,2.7-1.2,3.9-1.9c1.5-0.9,2.6-1.8,3.5-2.8c1-1.1,1.4-2.2,1.4-3.4
		C114.1,24.2,113.5,22.5,112.5,21L112.5,21z M127.1,38.5c-0.3,0.3-0.8,0.5-1.1,0.7l-0.1-0.1c0.1-1.4,0.4-2.7,1-4
		c1.1-2.7,2.7-5.2,4.5-7.5c1.6-2.1,3.4-4.1,5.4-5.9c0.5-0.5,1.1-0.8,1.7-1.1c-0.2,0.3-0.3,0.7-0.5,1c-1.2,2.2-2.3,4.3-3.5,6.5
		c-1,1.8-2,3.6-3.1,5.4C130.1,35.4,128.8,37.1,127.1,38.5L127.1,38.5z M166.1,37.9c0.2-0.7,0.5-1.4,0.7-2.1c0.4-1,0.7-2,1.1-3
		c0.7-2.3,1.5-4.5,2.2-6.8c0.7-2.2,1.4-4.4,2.1-6.5c0.5-1.6,0.4-3.1-0.5-4.6c-0.2-0.3-0.3-0.6-0.7-0.6c-2.5,4.1-5.6,7.7-8.8,11.2
		c0-0.1,0-0.3,0-0.4c0.6-2.3,1.2-4.7,1.8-7c0.4-1.6-0.1-2.9-1-4.2c-0.3-0.4-0.5-0.4-0.8,0.1c-0.2,0.4-0.4,0.8-0.7,1.1
		c-0.9,1.1-1.8,2.2-2.7,3.3c-2.1,2.5-4.3,5-6.4,7.5c-0.1,0.1-0.2,0.1-0.4,0.3c0.1-0.3,0.1-0.4,0.1-0.6c0.6-1.8,1.2-3.7,1.8-5.5
		c0.1-0.3,0.1-0.5,0.1-0.8c-0.1-0.3,0-0.7,0.1-1c0.2-0.3,0.2-0.6,0.4-0.9c0.2-0.4,0.2-0.9,0.1-1.3c-0.3-0.9-0.7-1.6-1.3-2.3
		c-0.1-0.1-0.2-0.2-0.3-0.3c-0.4-0.3-0.6-0.2-0.8,0.2c0,0.1-0.1,0.3-0.2,0.4c-0.4,0.5-0.8,1-1.2,1.6c-1.5,2.4-3,4.9-4.5,7.3
		c-1.5,2.5-3,5.1-4.6,7.6c-0.8,1.3-1.7,2.6-2.6,3.8c-0.3,0.4-0.6,0.9-1.2,1.1c0.1-0.7,0.2-1.4,0.3-2c0.5-2.3,1.2-4.6,2.2-6.7
		c0.7-1.5,1.5-3.1,2.3-4.6c0.4-0.7,0.5-1.3,0.3-1.9c-0.3-1.3-0.9-2.4-1.7-3.4c-0.2-0.2-0.4-0.5-0.8-0.5c-0.1,0.1-0.1,0.2-0.2,0.4
		c-0.1,0.2-0.2,0.3-0.5,0.3c-1.7,0.1-3.2,0.7-4.6,1.6c-3.1,1.9-5.8,4.3-8,7.2c-0.3,0.5-0.7,0.9-1.1,1.3c-1.8,2-3.7,3.9-5.6,5.9
		c-0.4,0.4-0.8,0.8-1.1,1.3l-0.1-0.1c0-0.1,0.1-0.2,0.1-0.3c0.5-1.7,1.1-3.4,1.6-5.2c0.5-1.8,1-3.7,1.5-5.5c0.4-1.4,0.7-2.8,1.1-4.2
		c0.8-2.8,0.5-1.9,1.3-4.6c0.5-1.6,0.7-3.4,1.1-5c0.4-1.5,0.8-3,1-4.5c0.1-0.7-0.1-1.3-0.5-1.8c-0.5-0.8-0.8-0.8-1.3,0
		c0,0.1-0.1,0.2-0.1,0.2c-1.5,2.6-2.6,5.4-3.6,8.2c-0.7,1.8-1.3,3.6-1.9,5.3c-1.1,2.9-0.7,2.4-1.7,5.4c-0.7,1.9-1.3,3.9-1.9,5.8
		c-0.5,1.4-0.9,2.7-1.4,4.1c-0.6,1.8-1.2,3.6-1.8,5.4c-0.2,0.5-0.3,1.1-0.6,1.5c-0.3,0.5-0.3,0.8,0,1.2c0.5,0.7,1.1,1.3,1.7,1.9
		c0.6,0.5,1.3,0.9,1.9,1.3c0.5,0.3,0.8,0.2,1-0.4c0.2-0.4,0.3-0.9,0.5-1.3c0.3-0.8,0.4-1.6,0.9-2.4c1.2-1.6,2.4-3.3,3.6-4.9
		c0.5-0.7,1.2-1.4,1.7-2.1c0.1,0.2,0.1,0.3,0.1,0.4c-0.2,1-0.5,1.9-0.6,2.9c-0.4,2.6,0.6,4.7,2.6,6.4c0.9,0.8,1.9,0.8,3,0.3
		c1-0.5,2-1.2,2.8-2c1.5-1.6,2.8-3.4,3.9-5.3c0.1-0.1,0.2-0.2,0.4-0.4c0,0.3,0,0.5,0,0.7c0.3,1.3,0.8,2.4,1.6,3.5
		c0.3,0.4,0.7,0.8,1.1,1.1c0.3,0.3,0.8,0.3,1.2,0.1c0.5-0.3,1-0.6,1.3-1c0.7-0.8,1.3-1.6,1.9-2.4c0.3-0.3,0.5-0.7,0.8-1.1
		c0.1,0.3,0.2,0.4,0.3,0.5c0.7,1.3,1.6,2.5,2.9,3.4c0.6,0.5,0.9,0.4,1.2-0.3c0.3-0.6,0.6-1.1,0.9-1.7c1.2-1.8,2.3-3.6,3.5-5.4
		c2.2-3,4.5-6,6.7-9.1c0.1-0.1,0.2-0.2,0.3-0.3c0,0.3,0,0.5,0,0.7c-0.2,0.8-0.4,1.7-0.6,2.5c-0.4,1.5-0.7,3-1.2,4.5
		c-0.2,0.7-0.3,1.4,0,2.1c0.2,0.6,0.5,1.1,0.8,1.7c0.1,0.2,0.4,0.4,0.6,0.6c2.4-3.4,4.8-6.8,7.4-9.9c0,0.3-0.1,0.5-0.2,0.8
		c-0.4,1-0.8,2-1.1,2.9c-0.7,2-1.5,4-2.2,6c-0.2,0.5-0.4,1-0.4,1.5c0.1,1.8,0.7,3.4,1.6,4.9c0.1,0.2,0.4,0.3,0.6,0.5
		c0.1-0.2,0.3-0.3,0.3-0.4C165.2,39.8,165.9,38.9,166.1,37.9L166.1,37.9z M33.1,42.7c-0.8-1.3-1.8-2.4-3-3.4
		c-0.5-0.4-1.1-0.7-1.7-0.8c-1.4-0.2-2.9-0.5-4.3-0.7c-2.5-0.4-5-0.8-7.5-1.3c-0.3,0-0.5-0.1-0.9-0.2c0.1-0.2,0.2-0.4,0.3-0.5
		c1.6-2.3,3.2-4.6,4.8-6.9c2.1-3,4.2-6.1,6.3-9.1c1.1-1.6,2.1-3.2,3.2-4.8c1.2-1.8,2.3-3.6,3.5-5.4c1-1.6,2-3.2,3-4.8
		c0.4-0.6,0.5-1.3,0.2-2c-0.4-0.8-0.8-1.6-1.2-2.3c-0.5-0.8-0.7-0.7-1.3-0.1c-0.1,0.1-0.3,0.2-0.4,0.4c-1.9,2.4-3.8,4.8-5.7,7.2
		c-3.1,4-6.2,8-9.2,12c-1.1,1.4-2.1,2.9-3.2,4.3c-0.7,0.9-1.3,1.8-2,2.7l-0.2-0.1c0.5-1.5,1-2.9,1.5-4.4c0.8-2.2,1.6-4.4,2.4-6.7
		c0.7-1.8,1.3-3.7,1.9-5.5s1.1-3.6,1.4-5.5c0.2-1.4-0.5-2-1.5-2.7c-0.3-0.2-0.7-0.2-0.9,0.1s-0.5,0.7-0.7,1.1
		c-1.2,2.3-2.5,4.6-3.6,7c-1.4,2.9-2.7,5.7-3.9,8.7c-1.3,3.1-2.4,6.2-3.6,9.3c-0.7,1.8-1.3,3.6-1.9,5.5c-0.7,2-1.3,4-1.9,6
		c-0.6,1.8-1.2,3.7-1.9,5.5c-0.3,0.7-0.2,1.4,0.3,1.9c1.1,1.2,2.4,2.2,4,2.7c0.9,0.3,1.4,0,1.7-0.9c0.4-1.2,0.8-2.4,1.1-3.6
		c0.2-0.6,0.4-1.3,0.6-1.9c0.4-1.3,0.7-2.5,1.1-3.8c0.1-0.2,0.2-0.5,0.3-0.8c0.3,0.3,0.6,0.5,0.8,0.7c0.7,0.6,1.5,1,2.4,1.2
		c2.1,0.3,4.3,0.7,6.4,1c1.8,0.3,3.5,0.6,5.3,0.9c2.5,0.4,5,0.8,7.5,1.2C33,44,33.3,44,33.7,44C33.5,43.5,33.3,43.1,33.1,42.7z"/>
</g>
</svg>
