<svg id="Layer_1" data-name="Layer 1" xmlns="http://www.w3.org/2000/svg" viewBox="0 0 50 50"><defs><style>.cls-1{fill:none;stroke:#000;stroke-miterlimit:10;stroke-width:3px;}</style></defs><path class="cls-1" d="M-.83,9.59l7.44,2.63A3.88,3.88,0,0,0,9,12.3l8.84-2.46a3.93,3.93,0,0,1,3,.38l2.6,1.51a4,4,0,0,0,3.28.3l5.59-2a3.93,3.93,0,0,1,2.62,0l6,2.11a3.93,3.93,0,0,0,2.62,0l7.3-2.58"/><path class="cls-1" d="M-.83,24.07,6.61,26.7A4,4,0,0,0,9,26.78l8.84-2.46a3.89,3.89,0,0,1,3,.38l2.6,1.5a3.93,3.93,0,0,0,3.28.31l5.59-2a3.93,3.93,0,0,1,2.62,0l6,2.12a3.93,3.93,0,0,0,2.62,0l7.3-2.58"/><path class="cls-1" d="M-.83,38.55l7.44,2.62A3.88,3.88,0,0,0,9,41.25l8.84-2.46a3.93,3.93,0,0,1,3,.39l2.6,1.5a3.89,3.89,0,0,0,3.28.3l5.59-2a3.93,3.93,0,0,1,2.62,0l6,2.11a3.93,3.93,0,0,0,2.62,0l7.3-2.57"/></svg>